<svg width="799" height="799" viewBox="0 0 799 799" fill="none" xmlns="http://www.w3.org/2000/svg">
<g clip-path="url(#clip0_120_7)">
<path d="M400 176C414.2 176 427.3 183.5 434.5 195.8L650.5 563.8C657.8 576.2 657.8 591.5 650.7 603.9C643.6 616.3 630.3 624 616 624H184C169.7 624 156.4 616.3 149.3 603.9C142.2 591.5 142.3 576.1 149.5 563.8L365.5 195.8C372.7 183.5 385.8 176 400 176ZM400 304C386.7 304 376 314.7 376 328V440C376 453.3 386.7 464 400 464C413.3 464 424 453.3 424 440V328C424 314.7 413.3 304 400 304ZM432 528C432 519.513 428.629 511.374 422.628 505.373C416.626 499.371 408.487 496 400 496C391.513 496 383.374 499.371 377.373 505.373C371.372 511.374 368 519.513 368 528C368 536.487 371.372 544.626 377.373 550.627C383.374 556.629 391.513 560 400 560C408.487 560 416.626 556.629 422.628 550.627C428.629 544.626 432 536.487 432 528Z" fill="white"/>
</g>
<defs>
<clipPath id="clip0_120_7">
<rect width="512" height="512" fill="white" transform="translate(144 144)"/>
</clipPath>
</defs>
</svg>
