<svg width="799" height="799" viewBox="0 0 799 799" fill="none" xmlns="http://www.w3.org/2000/svg">
<g clip-path="url(#clip0_120_7)">
<path d="M592 144C627.3 144 656 172.7 656 208V496C656 531.3 627.3 560 592 560H453.3L329.6 652.8C324.7 656.4 318.2 657 312.8 654.3C307.4 651.6 304 646.1 304 640V560H208C172.7 560 144 531.3 144 496V208C144 172.7 172.7 144 208 144H592ZM397.698 448.05C390.026 448.05 383.582 450.848 378.365 456.442C373.455 462.037 371 468.254 371 475.093C371 482.864 373.915 489.702 379.746 495.607C385.577 501.202 393.095 504 402.302 504C409.974 504 416.265 500.736 421.175 494.209C426.392 487.371 429 479.911 429 471.829C429 455.977 418.566 448.05 397.698 448.05ZM397.698 207C387.878 207 381.434 210.731 378.365 218.19C375.603 225.34 374.223 234.664 374.223 246.165L373.762 318.899C373.762 354.334 375.604 384.796 379.286 410.284C380.207 414.325 382.661 417.589 386.65 420.075C390.64 422.562 395.09 423.806 400 423.806C404.603 423.806 408.592 422.562 411.968 420.075C415.343 417.278 417.185 413.237 417.492 407.953C416.878 394.277 416.571 385.262 416.571 380.91C416.571 364.436 417.492 340.657 419.333 309.574C421.174 277.248 422.096 252.692 422.096 235.907C422.096 227.515 420.101 220.677 416.111 215.393C412.122 209.798 405.984 207 397.698 207Z" fill="white"/>
</g>
<defs>
<clipPath id="clip0_120_7">
<rect width="512" height="512" fill="white" transform="translate(144 144)"/>
</clipPath>
</defs>
</svg>
