<svg width="799" height="799" viewBox="0 0 799 799" fill="none" xmlns="http://www.w3.org/2000/svg">
<g clip-path="url(#clip0_120_7)">
<path d="M687.8 399.5C687.8 417.5 672.8 431.6 655.8 431.6H623.8L624.5 591.8C624.5 594.5 624.3 597.2 624 599.9V616.1C624 638.2 606.1 656.1 584 656.1H568C566.9 656.1 565.8 656.1 564.7 656C563.3 656.1 561.9 656.1 560.5 656.1L528 656H504C481.9 656 464 638.1 464 616V592V528C464 510.3 449.7 496 432 496H368C350.3 496 336 510.3 336 528V592V616C336 638.1 318.1 656 296 656H272H240.1C238.6 656 237.1 655.9 235.6 655.8C234.4 655.9 233.2 656 232 656H216C193.9 656 176 638.1 176 616V504C176 503.1 176 502.1 176.1 501.2V431.5H144.1C126.1 431.5 112.1 417.5 112.1 399.4C112.1 390.4 115.1 382.4 122.1 375.4L378.4 152C385.4 145 393.4 144 400.4 144C407.4 144 415.4 146 421.4 151L676.8 375.5C684.8 382.5 688.8 390.5 687.8 399.5Z" fill="white"/>
</g>
<defs>
<clipPath id="clip0_120_7">
<rect width="576" height="512" fill="white" transform="translate(112 144)"/>
</clipPath>
</defs>
</svg>
