<svg width="477" height="149" viewBox="0 0 477 149" fill="none" xmlns="http://www.w3.org/2000/svg">
<path d="M0 94.9774V1.02264H20.3063L40.4115 49.9814L42.221 54.3276H43.4273V1.02264H63.3315V94.9774H45.0357L22.92 46.0186L21.1105 41.6724H19.9042V94.9774H0Z" fill="#A8A8A8"/>
<path d="M169.311 96C163.28 96 158.086 95.1052 153.73 93.3156C149.441 91.526 146.123 89.0972 143.778 86.0293C141.499 82.9614 140.36 79.51 140.36 75.6751V20.3249C140.36 16.4474 141.499 12.996 143.778 9.97071C146.123 6.9028 149.441 4.47403 153.73 2.68442C158.086 0.894806 163.28 0 169.311 0C175.343 0 180.503 0.894806 184.792 2.68442C189.148 4.47403 192.466 6.9028 194.744 9.97071C197.09 13.0386 198.263 16.49 198.263 20.3249V75.6751C198.263 79.51 197.09 82.9614 194.744 86.0293C192.466 89.0972 189.148 91.526 184.792 93.3156C180.503 95.1052 175.343 96 169.311 96ZM169.311 82.5779C171.992 82.5779 173.868 81.8748 174.941 80.4687C176.013 79.02 176.549 77.4221 176.549 75.6751V20.3249C176.549 18.5779 175.979 17.0013 174.84 15.5952C173.701 14.1465 171.858 13.4221 169.311 13.4221C166.832 13.4221 164.989 14.1465 163.782 15.5952C162.643 17.0013 162.073 18.5779 162.073 20.3249V75.6751C162.073 77.4221 162.643 79.02 163.782 80.4687C164.922 81.8748 166.765 82.5779 169.311 82.5779Z" fill="#A8A8A8"/>
<path d="M292.957 94.9774L270.439 1.02264H291.55L302.406 56.5007L303.211 65.5766H304.417L305.221 56.5007L316.078 1.02264H337.188L314.671 94.9774H292.957Z" fill="#A8A8A8"/>
<path d="M405.827 94.9774L428.144 1.02264H454.683L477 94.9774H455.889L451.868 75.8029H430.959L426.938 94.9774H405.827ZM433.975 61.2304H448.853L442.62 29.6565L442.017 24.6711H440.811L440.207 29.6565L433.975 61.2304Z" fill="#A8A8A8"/>
<path d="M1 140.233V107.358H5.57203L10.0988 124.489L10.5062 126.01H10.7778V107.358H15.2593V140.233H11.1399L6.16051 123.102L5.7531 121.581H5.48149V140.233H1Z" fill="#A8A8A8"/>
<path d="M23.8389 140.591C22.0131 140.591 20.5721 139.972 19.5159 138.735C18.4747 137.482 17.9541 135.954 17.9541 134.15V121.85C17.9541 119.941 18.4747 118.391 19.5159 117.198C20.557 116.005 22.0131 115.409 23.8842 115.409C25.1064 115.409 26.1551 115.685 27.0303 116.236C27.9206 116.788 28.5996 117.541 29.0673 118.495C29.5351 119.435 29.769 120.508 29.769 121.716V128.827H22.2093V134.15C22.2093 134.761 22.3451 135.328 22.6167 135.85C22.9034 136.357 23.3259 136.61 23.8842 136.61C24.4727 136.61 24.8876 136.372 25.1291 135.895C25.3856 135.417 25.5138 134.836 25.5138 134.15V131.466H29.769V134.284C29.769 136.178 29.2484 137.706 28.2073 138.869C27.1812 140.017 25.7251 140.591 23.8389 140.591ZM22.2093 125.294H25.5138V121.85C25.5138 121.179 25.3931 120.597 25.1517 120.105C24.9254 119.599 24.5029 119.345 23.8842 119.345C23.3108 119.345 22.8883 119.606 22.6167 120.128C22.3451 120.635 22.2093 121.209 22.2093 121.85V125.294Z" fill="#A8A8A8"/>
<path d="M38.2294 140.591C36.796 140.591 35.702 140.278 34.9475 139.652C34.1931 139.026 33.6725 138.131 33.3858 136.968C33.1142 135.805 32.9784 134.419 32.9784 132.808V119.837H30.6697V115.767H32.9784V109.728H37.5504V115.767H40.6965V119.837H37.5504V133.457C37.5504 134.411 37.6938 135.119 37.9805 135.581C38.2672 136.029 38.7349 136.252 39.3838 136.252C39.6705 136.252 39.9194 136.23 40.1307 136.185C40.357 136.141 40.5381 136.088 40.6739 136.029V140.166C40.3721 140.285 40.0401 140.382 39.678 140.457C39.3309 140.546 38.8481 140.591 38.2294 140.591Z" fill="#A8A8A8"/>
<path d="M44.9266 140.233L41.2599 115.767H45.6508L46.8731 128.559L47.0541 131.064H47.3258L47.5521 128.559L49.4533 115.767H52.1694L54.0706 128.559L54.297 131.064H54.5686L54.7496 128.559L55.9719 115.767H60.3628L56.6962 140.233H52.8937L51.1282 128.559L50.9019 126.278H50.7208L50.4945 128.559L48.729 140.233H44.9266Z" fill="#A8A8A8"/>
<path d="M67.4483 140.546C65.6225 140.546 64.189 139.942 63.1478 138.735C62.1067 137.512 61.5861 135.969 61.5861 134.105V121.85C61.5861 119.986 62.1067 118.45 63.1478 117.243C64.189 116.02 65.6225 115.409 67.4483 115.409C69.259 115.409 70.6849 116.02 71.7261 117.243C72.7823 118.45 73.3104 119.986 73.3104 121.85V134.105C73.3104 135.969 72.7823 137.512 71.7261 138.735C70.6849 139.942 69.259 140.546 67.4483 140.546ZM67.4483 136.61C68.0368 136.61 68.4442 136.379 68.6705 135.917C68.8968 135.44 69.01 134.836 69.01 134.105V121.85C69.01 121.104 68.8968 120.501 68.6705 120.038C68.4442 119.576 68.0368 119.345 67.4483 119.345C66.8598 119.345 66.4524 119.576 66.226 120.038C65.9997 120.501 65.8865 121.104 65.8865 121.85V134.105C65.8865 134.851 65.9997 135.455 66.226 135.917C66.4524 136.379 66.8598 136.61 67.4483 136.61Z" fill="#A8A8A8"/>
<path d="M75.3397 140.233V115.767H79.9117V118.495C80.0023 117.899 80.2814 117.37 80.7492 116.907C81.2169 116.445 81.7828 116.08 82.4467 115.812C83.1257 115.543 83.8047 115.409 84.4837 115.409V120.419C84.2876 120.344 84.0763 120.299 83.85 120.284C83.6388 120.255 83.4275 120.24 83.2163 120.24C82.2204 120.24 81.4206 120.508 80.8171 121.045C80.2135 121.581 79.9117 122.312 79.9117 123.236V140.233H75.3397Z" fill="#A8A8A8"/>
<path d="M86.0819 140.233V107.358H90.6539V122.968H90.8803L91.1519 122.163L93.37 115.767H97.7157L94.1848 123.728L98.3494 140.233H93.7321L91.4688 130.348L91.4235 129.99H91.3782L90.6539 131.78V140.233H86.0819Z" fill="#A8A8A8"/>
<path d="M110.119 140.591C109.365 140.591 108.724 140.36 108.195 139.898C107.667 139.436 107.268 138.839 106.996 138.109C106.724 137.363 106.588 136.595 106.588 135.805V120.195C106.588 119.405 106.717 118.644 106.973 117.914C107.245 117.183 107.645 116.587 108.173 116.125C108.701 115.647 109.35 115.409 110.119 115.409C110.693 115.409 111.296 115.603 111.93 115.99C112.564 116.378 113.167 116.84 113.741 117.377V107.358H118.313V140.233H113.741V138.623C113.137 139.145 112.541 139.607 111.953 140.01C111.364 140.397 110.753 140.591 110.119 140.591ZM112.292 136.342C112.639 136.342 112.964 136.2 113.265 135.917C113.582 135.634 113.741 135.283 113.741 134.866V121.134C113.741 120.776 113.582 120.441 113.265 120.128C112.964 119.815 112.639 119.658 112.292 119.658C111.96 119.658 111.689 119.8 111.477 120.083C111.266 120.351 111.161 120.702 111.161 121.134V134.866C111.161 135.283 111.266 135.634 111.477 135.917C111.689 136.2 111.96 136.342 112.292 136.342Z" fill="#A8A8A8"/>
<path d="M126.973 140.591C125.147 140.591 123.706 139.972 122.65 138.735C121.609 137.482 121.088 135.954 121.088 134.15V121.85C121.088 119.941 121.609 118.391 122.65 117.198C123.691 116.005 125.147 115.409 127.018 115.409C128.241 115.409 129.289 115.685 130.164 116.236C131.055 116.788 131.734 117.541 132.201 118.495C132.669 119.435 132.903 120.508 132.903 121.716V128.827H125.343V134.15C125.343 134.761 125.479 135.328 125.751 135.85C126.038 136.357 126.46 136.61 127.018 136.61C127.607 136.61 128.022 136.372 128.263 135.895C128.52 135.417 128.648 134.836 128.648 134.15V131.466H132.903V134.284C132.903 136.178 132.383 137.706 131.341 138.869C130.315 140.017 128.859 140.591 126.973 140.591ZM125.343 125.294H128.648V121.85C128.648 121.179 128.527 120.597 128.286 120.105C128.059 119.599 127.637 119.345 127.018 119.345C126.445 119.345 126.022 119.606 125.751 120.128C125.479 120.635 125.343 121.209 125.343 121.85V125.294Z" fill="#A8A8A8"/>
<path d="M148.886 140.591C147.528 140.591 146.359 140.278 145.378 139.652C144.412 139.026 143.665 138.176 143.137 137.102C142.624 136.029 142.368 134.821 142.368 133.479V114.112C142.368 112.755 142.624 111.547 143.137 110.489C143.665 109.415 144.412 108.565 145.378 107.939C146.359 107.313 147.528 107 148.886 107C150.244 107 151.406 107.313 152.372 107.939C153.353 108.565 154.099 109.415 154.612 110.489C155.141 111.562 155.405 112.77 155.405 114.112V133.479C155.405 134.821 155.141 136.029 154.612 137.102C154.099 138.176 153.353 139.026 152.372 139.652C151.406 140.278 150.244 140.591 148.886 140.591ZM148.886 135.895C149.49 135.895 149.912 135.649 150.154 135.157C150.395 134.65 150.516 134.091 150.516 133.479V114.112C150.516 113.501 150.388 112.949 150.131 112.457C149.874 111.95 149.46 111.696 148.886 111.696C148.328 111.696 147.913 111.95 147.641 112.457C147.385 112.949 147.256 113.501 147.256 114.112V133.479C147.256 134.091 147.385 134.65 147.641 135.157C147.898 135.649 148.313 135.895 148.886 135.895Z" fill="#A8A8A8"/>
<path d="M158.139 148.642V115.767H162.711V117.377C163.284 116.84 163.888 116.378 164.521 115.99C165.155 115.603 165.759 115.409 166.332 115.409C167.117 115.409 167.766 115.647 168.279 116.125C168.807 116.587 169.199 117.183 169.456 117.914C169.727 118.644 169.863 119.405 169.863 120.195V135.805C169.863 136.595 169.727 137.363 169.456 138.109C169.184 138.839 168.784 139.436 168.256 139.898C167.728 140.36 167.087 140.591 166.332 140.591C165.698 140.591 165.08 140.397 164.476 140.01C163.873 139.607 163.284 139.145 162.711 138.623V148.642H158.139ZM164.295 136.342C164.642 136.342 164.891 136.237 165.042 136.029C165.208 135.82 165.291 135.507 165.291 135.089V121.358C165.291 120.791 165.208 120.366 165.042 120.083C164.891 119.8 164.642 119.658 164.295 119.658C163.963 119.658 163.616 119.8 163.254 120.083C162.892 120.351 162.711 120.702 162.711 121.134V134.866C162.711 135.224 162.892 135.559 163.254 135.872C163.616 136.185 163.963 136.342 164.295 136.342Z" fill="#A8A8A8"/>
<path d="M177.545 140.591C175.72 140.591 174.279 139.972 173.222 138.735C172.181 137.482 171.661 135.954 171.661 134.15V121.85C171.661 119.941 172.181 118.391 173.222 117.198C174.264 116.005 175.72 115.409 177.591 115.409C178.813 115.409 179.862 115.685 180.737 116.236C181.627 116.788 182.306 117.541 182.774 118.495C183.242 119.435 183.476 120.508 183.476 121.716V128.827H175.916V134.15C175.916 134.761 176.052 135.328 176.323 135.85C176.61 136.357 177.032 136.61 177.591 136.61C178.179 136.61 178.594 136.372 178.836 135.895C179.092 135.417 179.22 134.836 179.22 134.15V131.466H183.476V134.284C183.476 136.178 182.955 137.706 181.914 138.869C180.888 140.017 179.432 140.591 177.545 140.591ZM175.916 125.294H179.22V121.85C179.22 121.179 179.1 120.597 178.858 120.105C178.632 119.599 178.209 119.345 177.591 119.345C177.017 119.345 176.595 119.606 176.323 120.128C176.052 120.635 175.916 121.209 175.916 121.85V125.294Z" fill="#A8A8A8"/>
<path d="M185.414 140.233V115.767H189.986V118.495C190.077 117.899 190.356 117.37 190.824 116.907C191.292 116.445 191.857 116.08 192.521 115.812C193.2 115.543 193.879 115.409 194.558 115.409V120.419C194.362 120.344 194.151 120.299 193.925 120.284C193.713 120.255 193.502 120.24 193.291 120.24C192.295 120.24 191.495 120.508 190.892 121.045C190.288 121.581 189.986 122.312 189.986 123.236V140.233H185.414Z" fill="#A8A8A8"/>
<path d="M199.356 140.591C198.3 140.591 197.387 140.062 196.618 139.003C195.848 137.945 195.463 136.327 195.463 134.15C195.463 132.048 195.916 130.356 196.821 129.073C197.742 127.791 199.115 126.681 200.941 125.741C201.514 125.443 201.997 125.175 202.389 124.936C202.782 124.698 203.023 124.474 203.114 124.265V121.581C203.114 120.97 203.038 120.448 202.887 120.016C202.751 119.569 202.404 119.345 201.846 119.345C201.333 119.345 200.986 119.584 200.805 120.061C200.624 120.523 200.533 121.104 200.533 121.805V122.968H195.961V121.939C195.961 120.597 196.225 119.442 196.753 118.473C197.297 117.489 198.028 116.736 198.949 116.214C199.884 115.677 200.941 115.409 202.118 115.409C203.249 115.409 204.23 115.67 205.06 116.192C205.89 116.699 206.531 117.407 206.984 118.316C207.452 119.211 207.686 120.24 207.686 121.403V135.984C207.686 137.072 207.716 137.922 207.776 138.534C207.836 139.13 207.912 139.696 208.002 140.233H203.521C203.325 139.995 203.204 139.644 203.159 139.182C203.129 138.72 203.114 138.414 203.114 138.265H202.797C202.419 138.951 201.937 139.51 201.348 139.942C200.775 140.375 200.111 140.591 199.356 140.591ZM201.212 136.163C201.74 136.163 202.186 135.984 202.548 135.626C202.925 135.268 203.114 134.881 203.114 134.463V128.649C202.012 129.111 201.205 129.812 200.692 130.751C200.194 131.675 199.945 132.719 199.945 133.882C199.945 134.389 200.043 134.896 200.239 135.403C200.435 135.909 200.76 136.163 201.212 136.163Z" fill="#A8A8A8"/>
<path d="M215.872 140.569C213.865 140.569 212.386 139.95 211.435 138.712C210.5 137.475 210.032 135.753 210.032 133.546V122.431C210.032 120.21 210.5 118.488 211.435 117.265C212.386 116.028 213.865 115.409 215.872 115.409C217.878 115.409 219.357 116.028 220.308 117.265C221.274 118.503 221.756 120.225 221.756 122.431V124.355H217.184V121.85C217.184 121.164 217.094 120.59 216.913 120.128C216.732 119.666 216.385 119.435 215.872 119.435C215.359 119.435 215.019 119.673 214.853 120.15C214.687 120.612 214.604 121.179 214.604 121.85V134.128C214.604 134.799 214.687 135.373 214.853 135.85C215.019 136.312 215.359 136.543 215.872 136.543C216.385 136.543 216.732 136.312 216.913 135.85C217.094 135.388 217.184 134.814 217.184 134.128V131.623H221.756V133.546C221.756 135.753 221.274 137.475 220.308 138.712C219.357 139.95 217.878 140.569 215.872 140.569ZM218.678 141.597C219.342 141.597 219.946 141.814 220.489 142.246C221.032 142.693 221.304 143.439 221.304 144.482C221.304 145.452 221.025 146.242 220.466 146.853C219.923 147.479 219.214 147.934 218.339 148.217C217.479 148.501 216.573 148.642 215.623 148.642C214.808 148.642 213.978 148.515 213.133 148.262C212.303 148.023 211.692 147.763 211.3 147.479L212.477 145.019C212.748 145.213 213.216 145.444 213.88 145.712C214.559 145.981 215.223 146.115 215.872 146.115C216.536 146.115 217.101 146.003 217.569 145.78C218.037 145.556 218.271 145.168 218.271 144.617C218.271 144.154 218.143 143.841 217.886 143.677C217.645 143.513 217.381 143.431 217.094 143.431C216.415 143.431 215.924 143.685 215.623 144.192L213.156 143.387L214.491 140.233H217.184L216.121 142.649H215.917C216.038 142.321 216.377 142.06 216.935 141.866C217.494 141.687 218.075 141.597 218.678 141.597Z" fill="#A8A8A8"/>
<path d="M229.421 140.546C227.596 140.546 226.162 139.942 225.121 138.735C224.08 137.512 223.559 135.969 223.559 134.105V121.85C223.559 119.986 224.08 118.45 225.121 117.243C226.162 116.02 227.596 115.409 229.421 115.409C231.232 115.409 232.658 116.02 233.699 117.243C234.756 118.45 235.284 119.986 235.284 121.85V134.105C235.284 135.969 234.756 137.512 233.699 138.735C232.658 139.942 231.232 140.546 229.421 140.546ZM229.421 136.61C230.01 136.61 230.417 136.379 230.644 135.917C230.87 135.44 230.983 134.836 230.983 134.105V121.85C230.983 121.104 230.87 120.501 230.644 120.038C230.417 119.576 230.01 119.345 229.421 119.345C228.833 119.345 228.426 119.576 228.199 120.038C227.973 120.501 227.86 121.104 227.86 121.85V134.105C227.86 134.851 227.973 135.455 228.199 135.917C228.426 136.379 228.833 136.61 229.421 136.61ZM231.436 113.284C230.727 113.284 230.078 113.15 229.489 112.882C228.841 112.584 228.162 112.435 227.452 112.435C227.045 112.435 226.622 112.509 226.185 112.658C225.747 112.792 225.37 112.956 225.053 113.15V109.84C225.264 109.676 225.498 109.542 225.755 109.438C226.011 109.318 226.275 109.214 226.547 109.125C226.819 109.035 227.12 108.99 227.452 108.99C228.162 108.99 228.825 109.11 229.444 109.348C229.776 109.468 230.108 109.579 230.44 109.684C230.772 109.788 231.104 109.84 231.436 109.84C231.843 109.84 232.266 109.773 232.703 109.639C233.141 109.49 233.518 109.318 233.835 109.125V112.435C233.548 112.688 233.164 112.897 232.681 113.061C232.198 113.21 231.783 113.284 231.436 113.284Z" fill="#A8A8A8"/>
<path d="M242.971 140.591C241.146 140.591 239.705 139.972 238.648 138.735C237.607 137.482 237.087 135.954 237.087 134.15V121.85C237.087 119.941 237.607 118.391 238.648 117.198C239.689 116.005 241.146 115.409 243.017 115.409C244.239 115.409 245.288 115.685 246.163 116.236C247.053 116.788 247.732 117.541 248.2 118.495C248.668 119.435 248.901 120.508 248.901 121.716V128.827H241.342V134.15C241.342 134.761 241.478 135.328 241.749 135.85C242.036 136.357 242.458 136.61 243.017 136.61C243.605 136.61 244.02 136.372 244.261 135.895C244.518 135.417 244.646 134.836 244.646 134.15V131.466H248.901V134.284C248.901 136.178 248.381 137.706 247.34 138.869C246.314 140.017 244.858 140.591 242.971 140.591ZM241.342 125.294H244.646V121.85C244.646 121.179 244.526 120.597 244.284 120.105C244.058 119.599 243.635 119.345 243.017 119.345C242.443 119.345 242.021 119.606 241.749 120.128C241.478 120.635 241.342 121.209 241.342 121.85V125.294Z" fill="#A8A8A8"/>
<path d="M256.682 140.591C255.61 140.591 254.675 140.412 253.875 140.054C253.075 139.696 252.412 139.19 251.883 138.534C251.355 137.863 250.955 137.072 250.684 136.163C250.427 135.253 250.299 134.24 250.299 133.121H254.554C254.554 134.12 254.713 134.993 255.03 135.738C255.361 136.469 255.912 136.834 256.682 136.834C257.346 136.834 257.776 136.558 257.972 136.006C258.168 135.455 258.266 134.821 258.266 134.105C258.266 133.271 257.934 132.421 257.27 131.556C256.621 130.676 255.942 129.894 255.233 129.208C254.011 128.015 252.992 126.837 252.178 125.674C251.378 124.511 250.978 123.147 250.978 121.581C250.978 119.733 251.468 118.242 252.449 117.109C253.43 115.976 254.826 115.409 256.636 115.409C257.723 115.409 258.636 115.551 259.375 115.834C260.13 116.117 260.733 116.542 261.186 117.109C261.639 117.675 261.963 118.368 262.159 119.188C262.37 120.009 262.476 120.955 262.476 122.029H258.221C258.221 121.253 258.138 120.583 257.972 120.016C257.806 119.449 257.391 119.166 256.727 119.166C256.184 119.166 255.799 119.397 255.573 119.859C255.346 120.307 255.233 120.881 255.233 121.581C255.233 122.401 255.429 123.132 255.822 123.773C256.229 124.399 256.901 125.167 257.836 126.077C259.013 127.21 260.084 128.417 261.05 129.7C262.031 130.982 262.521 132.376 262.521 133.882C262.521 134.866 262.385 135.768 262.114 136.588C261.857 137.408 261.473 138.116 260.96 138.712C260.462 139.309 259.851 139.771 259.126 140.099C258.417 140.427 257.602 140.591 256.682 140.591Z" fill="#A8A8A8"/>
<path d="M276.966 140.591C275.14 140.591 273.699 139.972 272.643 138.735C271.602 137.482 271.081 135.954 271.081 134.15V121.85C271.081 119.941 271.602 118.391 272.643 117.198C273.684 116.005 275.14 115.409 277.012 115.409C278.234 115.409 279.282 115.685 280.158 116.236C281.048 116.788 281.727 117.541 282.195 118.495C282.662 119.435 282.896 120.508 282.896 121.716V128.827H275.337V134.15C275.337 134.761 275.472 135.328 275.744 135.85C276.031 136.357 276.453 136.61 277.012 136.61C277.6 136.61 278.015 136.372 278.256 135.895C278.513 135.417 278.641 134.836 278.641 134.15V131.466H282.896V134.284C282.896 136.178 282.376 137.706 281.335 138.869C280.309 140.017 278.852 140.591 276.966 140.591ZM275.337 125.294H278.641V121.85C278.641 121.179 278.52 120.597 278.279 120.105C278.053 119.599 277.63 119.345 277.012 119.345C276.438 119.345 276.016 119.606 275.744 120.128C275.472 120.635 275.337 121.209 275.337 121.85V125.294Z" fill="#A8A8A8"/>
<path d="M296.525 140.233L291.455 107.358H296.209L298.653 126.77L298.834 129.946H299.106L299.287 126.77L301.731 107.358H306.484L301.414 140.233H296.525Z" fill="#A8A8A8"/>
<path d="M308.535 140.233V115.767H313.107V140.233H308.535ZM308.535 111.875V107.358H313.107V111.875H308.535Z" fill="#A8A8A8"/>
<path d="M322.144 149C320.861 149 319.662 148.858 318.545 148.575C317.429 148.292 316.523 147.83 315.829 147.189C315.15 146.562 314.811 145.735 314.811 144.706C314.811 143.916 315.029 143.23 315.467 142.649C315.92 142.067 316.433 141.59 317.006 141.217C317.58 140.859 318.04 140.636 318.387 140.546C317.647 140.338 316.999 139.98 316.44 139.473C315.897 138.966 315.626 138.235 315.626 137.281C315.626 136.357 315.927 135.604 316.531 135.022C317.134 134.441 317.783 133.971 318.477 133.613C317.647 133.077 316.999 132.376 316.531 131.511C316.078 130.632 315.852 129.558 315.852 128.291V121.626C315.852 119.792 316.365 118.301 317.391 117.153C318.432 115.99 319.851 115.409 321.646 115.409C322.808 115.409 323.751 115.633 324.475 116.08C325.215 116.512 325.796 117.034 326.218 117.645C326.656 116.915 327.244 116.363 327.984 115.99C328.723 115.603 329.387 115.409 329.975 115.409V119.435C329.372 119.435 328.844 119.487 328.391 119.591C327.938 119.681 327.576 119.807 327.305 119.971C327.35 120.076 327.395 120.292 327.44 120.62C327.501 120.948 327.531 121.239 327.531 121.492V128.425C327.531 130.154 326.995 131.593 325.924 132.741C324.853 133.889 323.427 134.463 321.646 134.463C321.224 134.463 320.937 134.448 320.786 134.419C320.59 134.597 320.431 134.776 320.311 134.955C320.205 135.134 320.152 135.328 320.152 135.537C320.152 136.014 320.424 136.357 320.967 136.565C321.525 136.759 322.265 136.923 323.185 137.058C325.132 137.341 326.709 137.9 327.916 138.735C329.138 139.57 329.749 140.904 329.749 142.738C329.749 144.169 329.379 145.347 328.64 146.272C327.916 147.196 326.973 147.882 325.811 148.329C324.649 148.776 323.427 149 322.144 149ZM322.235 145.198C322.989 145.198 323.645 145.064 324.204 144.796C324.762 144.527 325.041 144.11 325.041 143.543C325.041 142.977 324.868 142.589 324.521 142.38C324.189 142.186 323.623 141.993 322.823 141.799L320.922 141.351C320.454 141.62 320.054 141.925 319.722 142.268C319.405 142.611 319.247 143.021 319.247 143.498C319.247 143.961 319.481 144.356 319.949 144.684C320.416 145.027 321.178 145.198 322.235 145.198ZM321.691 130.706C322.174 130.706 322.521 130.542 322.733 130.214C322.944 129.886 323.049 129.394 323.049 128.738V121.581C323.049 120.985 322.951 120.501 322.755 120.128C322.559 119.755 322.204 119.569 321.691 119.569C321.178 119.569 320.824 119.763 320.628 120.15C320.431 120.538 320.333 121.015 320.333 121.581V128.738C320.333 129.394 320.439 129.886 320.65 130.214C320.861 130.542 321.209 130.706 321.691 130.706Z" fill="#A8A8A8"/>
<path d="M331.434 140.233V115.767H336.006V140.233H331.434ZM331.434 111.875V107.358H336.006V111.875H331.434Z" fill="#A8A8A8"/>
<path d="M338.728 140.233V107.358H343.3V140.233H338.728Z" fill="#A8A8A8"/>
<path d="M349.35 140.591C348.293 140.591 347.38 140.062 346.611 139.003C345.841 137.945 345.457 136.327 345.457 134.15C345.457 132.048 345.909 130.356 346.815 129.073C347.735 127.791 349.108 126.681 350.934 125.741C351.507 125.443 351.99 125.175 352.382 124.936C352.775 124.698 353.016 124.474 353.107 124.265V121.581C353.107 120.97 353.031 120.448 352.88 120.016C352.745 119.569 352.398 119.345 351.839 119.345C351.326 119.345 350.979 119.584 350.798 120.061C350.617 120.523 350.526 121.104 350.526 121.805V122.968H345.954V121.939C345.954 120.597 346.219 119.442 346.747 118.473C347.29 117.489 348.022 116.736 348.942 116.214C349.878 115.677 350.934 115.409 352.111 115.409C353.243 115.409 354.223 115.67 355.053 116.192C355.883 116.699 356.524 117.407 356.977 118.316C357.445 119.211 357.679 120.24 357.679 121.403V135.984C357.679 137.072 357.709 137.922 357.769 138.534C357.83 139.13 357.905 139.696 357.996 140.233H353.514C353.318 139.995 353.197 139.644 353.152 139.182C353.122 138.72 353.107 138.414 353.107 138.265H352.79C352.413 138.951 351.93 139.51 351.341 139.942C350.768 140.375 350.104 140.591 349.35 140.591ZM351.206 136.163C351.734 136.163 352.179 135.984 352.541 135.626C352.918 135.268 353.107 134.881 353.107 134.463V128.649C352.005 129.111 351.198 129.812 350.685 130.751C350.187 131.675 349.938 132.719 349.938 133.882C349.938 134.389 350.036 134.896 350.232 135.403C350.428 135.909 350.753 136.163 351.206 136.163ZM346.385 112.77L349.508 108.744H354.352L357.475 112.77H353.31L351.907 110.757L350.549 112.77H346.385Z" fill="#A8A8A8"/>
<path d="M360.252 140.233V115.767H364.824V117.824C365.367 117.302 365.978 116.773 366.657 116.236C367.336 115.685 367.962 115.409 368.536 115.409C369.29 115.409 369.924 115.647 370.437 116.125C370.95 116.602 371.335 117.206 371.591 117.936C371.848 118.667 371.976 119.42 371.976 120.195V140.233H367.404V121.089C367.404 120.612 367.321 120.277 367.155 120.083C366.989 119.889 366.71 119.792 366.317 119.792C365.986 119.792 365.699 119.912 365.457 120.15C365.231 120.374 365.02 120.642 364.824 120.955V140.233H360.252Z" fill="#A8A8A8"/>
<path d="M379.834 140.569C377.827 140.569 376.348 139.95 375.398 138.712C374.462 137.475 373.995 135.753 373.995 133.546V122.431C373.995 120.21 374.462 118.488 375.398 117.265C376.348 116.028 377.827 115.409 379.834 115.409C381.841 115.409 383.32 116.028 384.27 117.265C385.236 118.503 385.719 120.225 385.719 122.431V124.355H381.147V121.85C381.147 121.164 381.056 120.59 380.875 120.128C380.694 119.666 380.347 119.435 379.834 119.435C379.321 119.435 378.982 119.673 378.816 120.15C378.65 120.612 378.567 121.179 378.567 121.85V134.128C378.567 134.799 378.65 135.373 378.816 135.85C378.982 136.312 379.321 136.543 379.834 136.543C380.347 136.543 380.694 136.312 380.875 135.85C381.056 135.388 381.147 134.814 381.147 134.128V131.623H385.719V133.546C385.719 135.753 385.236 137.475 384.27 138.712C383.32 139.95 381.841 140.569 379.834 140.569Z" fill="#A8A8A8"/>
<path d="M387.974 140.233V115.767H392.547V140.233H387.974ZM387.974 111.875V107.358H392.547V111.875H387.974Z" fill="#A8A8A8"/>
<path d="M398.596 140.591C397.54 140.591 396.627 140.062 395.857 139.003C395.088 137.945 394.703 136.327 394.703 134.15C394.703 132.048 395.155 130.356 396.061 129.073C396.981 127.791 398.354 126.681 400.18 125.741C400.754 125.443 401.236 125.175 401.629 124.936C402.021 124.698 402.262 124.474 402.353 124.265V121.581C402.353 120.97 402.278 120.448 402.127 120.016C401.991 119.569 401.644 119.345 401.085 119.345C400.572 119.345 400.225 119.584 400.044 120.061C399.863 120.523 399.773 121.104 399.773 121.805V122.968H395.201V121.939C395.201 120.597 395.465 119.442 395.993 118.473C396.536 117.489 397.268 116.736 398.188 116.214C399.124 115.677 400.18 115.409 401.357 115.409C402.489 115.409 403.47 115.67 404.299 116.192C405.129 116.699 405.771 117.407 406.223 118.316C406.691 119.211 406.925 120.24 406.925 121.403V135.984C406.925 137.072 406.955 137.922 407.016 138.534C407.076 139.13 407.151 139.696 407.242 140.233H402.76C402.564 139.995 402.444 139.644 402.398 139.182C402.368 138.72 402.353 138.414 402.353 138.265H402.036C401.659 138.951 401.176 139.51 400.588 139.942C400.014 140.375 399.35 140.591 398.596 140.591ZM400.452 136.163C400.98 136.163 401.425 135.984 401.787 135.626C402.164 135.268 402.353 134.881 402.353 134.463V128.649C401.251 129.111 400.444 129.812 399.931 130.751C399.433 131.675 399.184 132.719 399.184 133.882C399.184 134.389 399.282 134.896 399.478 135.403C399.675 135.909 399.999 136.163 400.452 136.163Z" fill="#A8A8A8"/>
<path d="M416.143 140.233L421.168 107.358H427.143L432.168 140.233H427.415L426.509 133.524H421.801L420.896 140.233H416.143ZM422.48 128.425H425.83L424.427 117.377L424.291 115.633H424.02L423.884 117.377L422.48 128.425Z" fill="#A8A8A8"/>
<path d="M440.731 140.591C439.298 140.591 438.204 140.278 437.449 139.652C436.695 139.026 436.174 138.131 435.887 136.968C435.616 135.805 435.48 134.419 435.48 132.808V119.837H433.171V115.767H435.48V109.728H440.052V115.767H443.198V119.837H440.052V133.457C440.052 134.411 440.195 135.119 440.482 135.581C440.769 136.029 441.237 136.252 441.885 136.252C442.172 136.252 442.421 136.23 442.632 136.185C442.859 136.141 443.04 136.088 443.176 136.029V140.166C442.874 140.285 442.542 140.382 442.18 140.457C441.833 140.546 441.35 140.591 440.731 140.591Z" fill="#A8A8A8"/>
<path d="M444.78 140.233V115.767H449.352V140.233H444.78ZM444.78 111.875V107.358H449.352V111.875H444.78Z" fill="#A8A8A8"/>
<path d="M455.084 140.233L451.056 115.767H455.492L457.031 129.946L457.167 132.406H457.529L457.665 129.946L459.204 115.767H463.64L459.611 140.233H455.084Z" fill="#A8A8A8"/>
<path d="M468.354 140.591C467.298 140.591 466.385 140.062 465.615 139.003C464.846 137.945 464.461 136.327 464.461 134.15C464.461 132.048 464.914 130.356 465.819 129.073C466.739 127.791 468.112 126.681 469.938 125.741C470.512 125.443 470.994 125.175 471.387 124.936C471.779 124.698 472.021 124.474 472.111 124.265V121.581C472.111 120.97 472.036 120.448 471.885 120.016C471.749 119.569 471.402 119.345 470.844 119.345C470.331 119.345 469.984 119.584 469.802 120.061C469.621 120.523 469.531 121.104 469.531 121.805V122.968H464.959V121.939C464.959 120.597 465.223 119.442 465.751 118.473C466.294 117.489 467.026 116.736 467.946 116.214C468.882 115.677 469.938 115.409 471.115 115.409C472.247 115.409 473.228 115.67 474.058 116.192C474.887 116.699 475.529 117.407 475.981 118.316C476.449 119.211 476.683 120.24 476.683 121.403V135.984C476.683 137.072 476.713 137.922 476.774 138.534C476.834 139.13 476.909 139.696 477 140.233H472.519C472.322 139.995 472.202 139.644 472.156 139.182C472.126 138.72 472.111 138.414 472.111 138.265H471.794C471.417 138.951 470.934 139.51 470.346 139.942C469.772 140.375 469.108 140.591 468.354 140.591ZM470.21 136.163C470.738 136.163 471.183 135.984 471.545 135.626C471.922 135.268 472.111 134.881 472.111 134.463V128.649C471.01 129.111 470.202 129.812 469.689 130.751C469.191 131.675 468.942 132.719 468.942 133.882C468.942 134.389 469.04 134.896 469.237 135.403C469.433 135.909 469.757 136.163 470.21 136.163Z" fill="#A8A8A8"/>
<rect x="79" y="47.9199" width="31" height="31" rx="10" transform="rotate(-45 79 47.9199)" fill="#A8A8A8"/>
<rect x="217" y="47.9199" width="31" height="31" rx="10" transform="rotate(-45 217 47.9199)" fill="#A8A8A8"/>
<rect x="355" y="47.9199" width="31" height="31" rx="10" transform="rotate(-45 355 47.9199)" fill="#A8A8A8"/>
</svg>
